# Blender v3.1.2 OBJ File: 'bullet.blend'
# www.blender.org
mtllib enemy_02.mtl
o 立方体
v 0.592493 -0.077122 -0.183654
v 1.003349 -0.077122 -0.594510
v 0.181637 -0.077122 -0.594510
v 0.592493 -0.077122 -1.005366
v 0.592493 -0.227809 -0.339293
v 0.847710 -0.227809 -0.594510
v 0.337276 -0.227809 -0.594510
v 0.592493 -0.227809 -0.849727
v 0.448624 0.238565 -0.463207
v 0.592493 -0.426937 -0.594510
v -0.588695 -0.077122 -0.179856
v -0.177840 -0.077122 -0.590712
v -0.999551 -0.077122 -0.590712
v -0.588695 -0.077122 -1.001568
v -0.588695 -0.227809 -0.335495
v -0.333478 -0.227809 -0.590712
v -0.843912 -0.227809 -0.590712
v -0.588695 -0.227809 -0.845929
v -0.450968 0.238565 -0.463207
v -0.588695 -0.426937 -0.590712
v -0.588696 -0.077122 0.989938
v -0.177840 -0.077122 0.579082
v -0.999551 -0.077122 0.579082
v -0.588695 -0.077122 0.168226
v -0.588696 -0.227809 0.834299
v -0.333478 -0.227809 0.579082
v -0.843913 -0.227809 0.579082
v -0.588695 -0.227809 0.323865
v -0.442482 0.238565 0.427898
v -0.588696 -0.426937 0.579082
v 0.592493 -0.077122 0.986140
v 1.003349 -0.077122 0.575284
v 0.181637 -0.077122 0.575284
v 0.592493 -0.077122 0.164428
v 0.592493 -0.227809 0.830501
v 0.847710 -0.227809 0.575284
v 0.337276 -0.227809 0.575284
v 0.592493 -0.227809 0.320067
v 0.448624 0.238565 0.444872
v 0.592493 -0.426937 0.575284
vt 0.125000 0.500000
vt 0.125000 0.750000
vt 0.125000 0.500000
vt 0.625000 0.250000
vt 0.375000 0.500000
vt 0.375000 0.250000
vt 0.625000 0.750000
vt 0.375000 0.750000
vt 0.625000 0.750000
vt 0.375000 1.000000
vt 0.625000 0.500000
vt 0.875000 0.750000
vt 0.375000 0.750000
vt 0.625000 0.250000
vt 0.625000 1.000000
vt 0.375000 1.000000
vt 0.875000 0.500000
vt 0.875000 0.750000
vt 0.625000 0.500000
vt 0.375000 0.500000
vt 0.125000 0.500000
vt 0.125000 0.750000
vt 0.125000 0.500000
vt 0.625000 0.250000
vt 0.375000 0.500000
vt 0.375000 0.250000
vt 0.625000 0.750000
vt 0.375000 0.750000
vt 0.625000 0.750000
vt 0.375000 1.000000
vt 0.625000 0.500000
vt 0.875000 0.750000
vt 0.375000 0.750000
vt 0.625000 0.250000
vt 0.625000 1.000000
vt 0.375000 1.000000
vt 0.875000 0.500000
vt 0.875000 0.750000
vt 0.625000 0.500000
vt 0.375000 0.500000
vt 0.125000 0.500000
vt 0.125000 0.750000
vt 0.125000 0.500000
vt 0.625000 0.250000
vt 0.375000 0.500000
vt 0.375000 0.250000
vt 0.625000 0.750000
vt 0.375000 0.750000
vt 0.625000 0.750000
vt 0.375000 1.000000
vt 0.625000 0.500000
vt 0.875000 0.750000
vt 0.375000 0.750000
vt 0.625000 0.250000
vt 0.625000 1.000000
vt 0.375000 1.000000
vt 0.875000 0.500000
vt 0.875000 0.750000
vt 0.625000 0.500000
vt 0.375000 0.500000
vt 0.125000 0.500000
vt 0.125000 0.750000
vt 0.125000 0.500000
vt 0.625000 0.250000
vt 0.375000 0.500000
vt 0.375000 0.250000
vt 0.625000 0.750000
vt 0.375000 0.750000
vt 0.625000 0.750000
vt 0.375000 1.000000
vt 0.875000 0.500000
vt 0.625000 0.500000
vt 0.375000 0.750000
vt 0.625000 0.250000
vt 0.625000 1.000000
vt 0.375000 1.000000
vt 0.875000 0.750000
vt 0.875000 0.750000
vt 0.625000 0.500000
vt 0.375000 0.500000
vn -0.6766 0.2908 0.6766
vn -0.5710 -0.5898 -0.5710
vn 0.5239 -0.6715 0.5239
vn 0.5710 -0.5898 0.5710
vn -0.5710 -0.5898 0.5710
vn 0.5710 -0.5898 -0.5710
vn -0.5239 -0.6715 0.5239
vn -0.5276 0.6657 -0.5276
vn 0.5131 0.6881 0.5131
vn 0.3857 0.8381 -0.3857
vn 0.5239 -0.6715 -0.5239
vn -0.5239 -0.6715 -0.5239
vn -0.5144 0.6861 0.5144
vn -0.3896 0.8345 -0.3896
vn 0.6722 0.3101 0.6722
vn 0.5263 0.6679 -0.5263
vn -0.3771 0.8460 0.3771
vn -0.5232 0.6727 -0.5232
vn 0.5174 0.6816 0.5174
vn 0.6853 0.2463 -0.6853
vn -0.5282 0.6649 0.5282
vn -0.6762 0.2925 -0.6762
vn 0.3860 0.8378 0.3860
vn 0.5125 0.6889 -0.5125
usemtl マテリアル
s off
f 3/1/1 1/2/1 9/3/1
f 4/4/2 7/5/2 3/6/2
f 6/7/3 5/8/3 10/9/3
f 6/7/4 1/10/4 5/8/4
f 7/5/5 1/2/5 3/1/5
f 8/11/6 2/12/6 6/7/6
f 5/8/7 7/5/7 10/13/7
f 4/4/8 3/6/8 9/14/8
f 1/10/9 2/15/9 9/16/9
f 2/12/10 4/17/10 9/18/10
f 8/11/11 6/7/11 10/19/11
f 7/5/12 8/11/12 10/20/12
f 4/4/2 8/11/2 7/5/2
f 6/7/4 2/15/4 1/10/4
f 7/5/5 5/8/5 1/2/5
f 8/11/6 4/17/6 2/12/6
usemtl マテリアル.001
f 13/21/13 11/22/13 19/23/13
f 14/24/2 17/25/2 13/26/2
f 16/27/3 15/28/3 20/29/3
f 16/27/4 11/30/4 15/28/4
f 13/21/5 15/28/5 11/22/5
f 18/31/6 12/32/6 16/27/6
f 15/28/7 17/25/7 20/33/7
f 14/24/14 13/26/14 19/34/14
f 11/30/15 12/35/15 19/36/15
f 12/32/16 14/37/16 19/38/16
f 18/31/11 16/27/11 20/39/11
f 17/25/12 18/31/12 20/40/12
f 14/24/2 18/31/2 17/25/2
f 16/27/4 12/35/4 11/30/4
f 13/21/5 17/25/5 15/28/5
f 18/31/6 14/37/6 12/32/6
usemtl マテリアル.002
f 23/41/17 21/42/17 29/43/17
f 24/44/2 27/45/2 23/46/2
f 26/47/3 25/48/3 30/49/3
f 26/47/4 21/50/4 25/48/4
f 23/41/5 25/48/5 21/42/5
f 28/51/6 22/52/6 26/47/6
f 25/48/7 27/45/7 30/53/7
f 24/44/18 23/46/18 29/54/18
f 21/50/19 22/55/19 29/56/19
f 22/52/20 24/57/20 29/58/20
f 28/51/11 26/47/11 30/59/11
f 27/45/12 28/51/12 30/60/12
f 24/44/2 28/51/2 27/45/2
f 26/47/4 22/55/4 21/50/4
f 23/41/5 27/45/5 25/48/5
f 28/51/6 24/57/6 22/52/6
usemtl マテリアル.003
f 33/61/21 31/62/21 39/63/21
f 34/64/2 37/65/2 33/66/2
f 36/67/3 35/68/3 40/69/3
f 36/67/4 31/70/4 35/68/4
f 33/61/5 35/68/5 31/62/5
f 34/71/6 36/67/6 38/72/6
f 35/68/7 37/65/7 40/73/7
f 34/64/22 33/66/22 39/74/22
f 31/70/23 32/75/23 39/76/23
f 32/77/24 34/71/24 39/78/24
f 38/72/11 36/67/11 40/79/11
f 37/65/12 38/72/12 40/80/12
f 34/64/2 38/72/2 37/65/2
f 36/67/4 32/75/4 31/70/4
f 33/61/5 37/65/5 35/68/5
f 34/71/6 32/77/6 36/67/6
