# Blender v3.1.2 OBJ File: 'bullet.blend'
# www.blender.org
mtllib PlayerBullet.mtl
o 立方体_立方体.004
v -0.846148 0.000000 1.545049
v 0.000000 0.846148 1.545049
v -0.846148 0.000000 0.348415
v 0.000000 0.846148 0.348415
v 0.000000 -0.846148 1.545049
v 0.846148 0.000000 1.545049
v 0.000000 -0.846148 0.348415
v 0.846148 0.000000 0.348415
v 0.000000 0.000000 2.733397
v 0.000000 0.000000 -0.873349
vt 0.625000 0.000000
vt 0.375000 0.250000
vt 0.375000 0.000000
vt 0.625000 0.500000
vt 0.375000 0.500000
vt 0.625000 0.500000
vt 0.375000 0.750000
vt 0.625000 0.750000
vt 0.875000 0.750000
vt 0.625000 0.750000
vt 0.125000 0.750000
vt 0.125000 0.500000
vt 0.875000 0.500000
vt 0.375000 0.750000
vt 0.625000 0.000000
vt 0.125000 0.750000
vt 0.375000 0.500000
vt 0.875000 0.500000
vt 0.625000 0.250000
vt 0.375000 0.250000
vn -0.7071 0.7071 0.0000
vn 0.6350 -0.6350 -0.4398
vn 0.7071 -0.7071 0.0000
vn 0.6316 0.6316 0.4497
vn -0.7071 -0.7071 0.0000
vn 0.7071 0.7071 0.0000
vn 0.6316 -0.6316 0.4497
vn -0.6316 0.6316 0.4497
vn -0.6316 -0.6316 0.4497
vn -0.6350 -0.6350 -0.4398
vn 0.6350 0.6350 -0.4398
vn -0.6350 0.6350 -0.4398
usemtl マテリアル.004
s off
f 2/1/1 3/2/1 1/3/1
f 8/4/2 7/5/2 10/6/2
f 8/4/3 5/7/3 7/5/3
f 6/8/4 2/9/4 9/10/4
f 7/5/5 1/11/5 3/12/5
f 4/13/6 6/8/6 8/4/6
f 5/7/7 6/8/7 9/14/7
f 2/1/8 1/3/8 9/15/8
f 1/11/9 5/7/9 9/16/9
f 7/5/10 3/12/10 10/17/10
f 4/13/11 8/4/11 10/18/11
f 3/2/12 4/19/12 10/20/12
f 2/1/1 4/19/1 3/2/1
f 8/4/3 6/8/3 5/7/3
f 7/5/5 5/7/5 1/11/5
f 4/13/6 2/9/6 6/8/6
