# Blender v3.1.2 OBJ File: 'fighter.blend'
# www.blender.org
mtllib fighter.mtl
o Cube
v -0.000000 0.045095 6.739219
v 1.031214 1.691818 -1.291503
v 2.281774 -1.241679 -2.605286
v -1.031214 1.691818 -1.291503
v -2.281774 -1.241679 -2.605286
v 0.000000 -0.257706 -1.344200
v 1.113177 -0.322047 0.000000
v -1.482675 0.000000 -0.578451
v 1.482675 0.000000 -0.578451
v -0.672100 1.344200 -0.000000
v -1.113177 -0.322047 -0.000000
v 0.000000 2.827930 -4.244177
v 0.672100 1.344200 0.000000
v 1.981667 0.000000 0.000000
v 0.000000 -0.520367 0.000000
v 0.000000 0.000000 -1.344200
v -1.981667 0.000000 -0.000000
v 0.000000 1.865720 -0.605835
v 1.191047 0.997683 1.760681
v 3.172199 1.000430 -0.852246
v -3.172199 1.000430 -0.852246
v -1.191047 0.997683 1.760681
v 0.672100 0.130867 1.575729
v -0.672100 0.130867 1.575729
v -0.000000 1.807645 2.290511
v -6.254143 -1.024391 -5.648630
v 6.254144 -1.024391 -5.648629
v 0.672100 0.000000 -1.841431
v -0.672100 0.000000 -1.841431
v 0.000000 0.679826 -1.926783
v -0.000000 -0.098252 2.413279
vt 0.750000 0.625000
vt 0.875000 0.750000
vt 0.750000 0.687500
vt 0.500000 0.875000
vt 0.562500 0.875000
vt 0.500000 1.000000
vt 0.562500 0.187500
vt 0.625000 0.250000
vt 0.562500 0.250000
vt 0.500000 0.375000
vt 0.562500 0.375000
vt 0.500000 0.437500
vt 0.500000 0.250000
vt 0.375000 0.375000
vt 0.437500 0.250000
vt 0.125000 0.625000
vt 0.250000 0.750000
vt 0.125000 0.687500
vt 0.250000 0.562500
vt 0.125000 0.500000
vt 0.500000 0.187500
vt 0.500000 0.062500
vt 0.500000 0.125000
vt 0.437500 0.125000
vt 0.562500 0.062500
vt 0.625000 0.062500
vt 0.625000 0.125000
vt 0.437500 0.875000
vt 0.375000 1.000000
vt 0.500000 0.812500
vt 0.468750 0.781250
vt 0.500000 0.750000
vt 0.625000 0.750000
vt 0.625000 0.812500
vt 0.562500 0.812500
vt 0.625000 0.625000
vt 0.687500 0.625000
vt 0.687500 0.687500
vt 0.625000 0.500000
vt 0.687500 0.500000
vt 0.687500 0.562500
vt 0.875000 0.562500
vt 0.750000 0.500000
vt 0.750000 0.562500
vt 0.625000 0.875000
vt 0.437500 0.812500
vt 0.437500 0.437500
vt 0.375000 0.468750
vt 0.375000 0.437500
vt 0.437500 0.375000
vt 0.562500 0.437500
vt 0.500000 0.500000
vt 0.625000 0.375000
vt 0.562500 0.125000
vt 0.562500 0.000000
vt 0.500000 0.000000
vt 0.375000 0.062500
vt 0.437500 0.062500
vt 0.375000 0.125000
vt 0.437500 0.000000
vt 0.437500 0.187500
vt 0.375000 0.187500
vt 0.625000 0.187500
vt 0.875000 0.625000
vt 0.625000 1.000000
vt 0.562500 1.000000
vt 0.250000 0.625000
vt 0.375000 0.500000
vn -0.3695 0.8664 0.3359
vn -0.4284 -0.8246 -0.3695
vn -0.2322 0.6758 -0.6996
vn 0.7148 -0.3218 0.6208
vn 0.8715 -0.1822 0.4552
vn 0.4284 -0.8246 -0.3695
vn 0.2936 -0.9351 0.1984
vn -0.2936 -0.9351 0.1984
vn 0.4838 0.8182 -0.3105
vn 0.5947 0.0000 -0.8039
vn -0.7513 -0.4840 -0.4486
vn -0.8715 -0.1822 0.4552
vn -0.3568 -0.9337 0.0309
vn -0.8439 -0.5268 0.1011
vn -0.6228 0.7274 0.2882
vn 0.6228 0.7274 0.2882
vn 0.3695 0.8664 0.3359
vn 0.6039 0.7969 0.0160
vn 0.5615 0.8275 -0.0027
vn -0.5615 0.8275 -0.0027
vn -0.6039 0.7969 0.0160
vn -0.7148 -0.3218 0.6208
vn -0.6817 -0.5183 0.5163
vn -0.1810 0.9737 0.1383
vn -0.1665 -0.9343 0.3152
vn -0.3264 -0.8803 0.3444
vn 0.4823 -0.8629 0.1509
vn 0.1665 -0.9343 0.3152
vn 0.3264 -0.8803 0.3444
vn 0.8439 -0.5268 0.1011
vn 0.6817 -0.5183 0.5163
vn 0.1810 0.9737 0.1383
vn 0.4898 -0.5673 -0.6620
vn 0.1262 -0.9887 0.0810
vn 0.2322 0.6758 -0.6996
vn 0.5362 -0.1890 -0.8227
vn -0.4838 0.8182 -0.3105
vn -0.5362 -0.1890 -0.8227
vn -0.5947 0.0000 -0.8039
vn -0.1262 -0.9887 0.0810
vn -0.4898 -0.5673 -0.6620
vn 0.7513 -0.4840 -0.4486
vn 0.2332 0.9208 0.3127
vn -0.3160 0.9172 0.2426
vn -0.2332 0.9208 0.3127
vn -0.3350 0.9257 -0.1756
vn -0.4814 -0.6528 0.5849
vn 0.3330 -0.8981 -0.2873
vn 0.3350 0.9257 -0.1756
vn 0.4814 -0.6528 0.5849
vn -0.1722 -0.9668 -0.1889
vn 0.1722 -0.9668 -0.1889
vn -0.3330 -0.8981 -0.2873
vn -0.4823 -0.8629 0.1509
vn 0.3160 0.9172 0.2426
vn 0.3568 -0.9337 0.0309
vn 0.5245 -0.5950 -0.6090
vn -0.5245 -0.5950 -0.6090
usemtl Material
s off
f 18/1/1 4/2/1 10/3/1
f 17/4/2 21/5/2 8/6/2
f 30/7/3 2/8/3 27/9/3
f 14/10/4 20/11/4 23/12/4
f 9/13/5 7/14/5 3/15/5
f 9/13/6 20/11/6 14/10/6
f 6/16/7 11/17/7 5/18/7
f 7/19/8 6/16/8 3/20/8
f 28/21/9 9/13/9 3/15/9
f 29/22/10 16/23/10 6/24/10
f 30/25/11 4/26/11 12/27/11
f 11/28/12 8/6/12 5/29/12
f 24/30/13 31/31/13 1/32/13
f 1/33/14 22/34/14 24/35/14
f 1/36/15 25/37/15 22/38/15
f 1/39/16 19/40/16 25/41/16
f 2/42/17 18/1/17 13/43/17
f 25/41/18 13/44/18 18/1/18
f 25/41/19 19/40/19 13/44/19
f 22/38/20 25/37/20 10/3/20
f 25/37/21 18/1/21 10/3/21
f 24/35/22 21/5/22 17/4/22
f 24/35/23 22/34/23 21/5/23
f 22/34/24 10/45/24 21/5/24
f 15/46/25 24/30/25 11/28/25
f 24/30/26 17/4/26 11/28/26
f 23/47/27 31/48/27 15/49/27
f 15/49/28 7/50/28 23/47/28
f 7/50/29 14/10/29 23/47/29
f 23/12/30 19/51/30 1/52/30
f 23/12/31 20/11/31 19/51/31
f 20/11/32 13/53/32 19/51/32
f 29/22/33 30/54/33 16/23/33
f 26/55/34 29/22/34 8/56/34
f 26/55/35 4/26/35 30/25/35
f 5/57/36 29/58/36 6/59/36
f 5/60/37 8/56/37 29/58/37
f 6/24/38 28/61/38 3/62/38
f 6/24/39 16/23/39 28/61/39
f 28/21/40 27/9/40 9/13/40
f 16/23/41 30/7/41 28/21/41
f 30/54/42 12/27/42 2/63/42
f 20/11/43 2/8/43 13/53/43
f 18/1/44 12/64/44 4/2/44
f 21/5/45 10/45/45 4/65/45
f 21/5/46 4/65/46 26/66/46
f 21/5/47 26/66/47 8/6/47
f 9/13/48 14/10/48 7/14/48
f 27/9/49 2/8/49 20/11/49
f 2/8/43 13/53/43 20/11/43
f 9/13/50 27/9/50 20/11/50
f 6/16/51 15/67/51 11/17/51
f 7/19/52 15/67/52 6/16/52
f 11/28/53 17/4/53 8/6/53
f 24/30/54 15/46/54 31/31/54
f 2/42/55 12/64/55 18/1/55
f 23/47/56 1/68/56 31/48/56
f 26/55/57 30/25/57 29/22/57
f 28/21/58 30/7/58 27/9/58
f 20/11/49 27/9/49 2/8/49
