# Blender v3.1.2 OBJ File: ''
# www.blender.org
mtllib meteor.mtl
o wind_stone_Cube.005
v -0.628480 0.195390 1.887487
v -0.631477 -0.727108 1.646578
v 0.500631 -0.727108 1.645666
v 0.503548 0.195390 1.886576
v -0.636449 -1.393356 1.023715
v 0.495556 -1.393356 1.022804
v -0.652210 1.439182 -0.156287
v -0.644109 1.583412 0.496566
v 0.488019 1.573482 0.495654
v 0.479905 1.439182 -0.157198
v -0.666371 -0.191290 -1.634272
v -0.664322 0.590132 -1.534578
v 0.467740 0.590132 -1.535489
v 0.465683 -0.191290 -1.635183
v -0.646295 -1.566127 0.220558
v -0.656142 -1.387028 -0.581891
v 0.475951 -1.387028 -0.519331
v 0.485753 -1.585752 0.219647
v -0.660029 1.167166 -1.062723
v 0.472081 1.167166 -1.063634
v -0.661818 -0.801564 -1.221976
v 0.470277 -0.801564 -1.222887
v -0.632751 1.263751 1.238856
v 0.499203 1.263751 1.237946
v 1.302679 0.146797 1.000959
v 1.299917 0.541689 0.737124
v 1.300881 -0.384706 0.829210
v 1.297493 -0.762279 0.505532
v 1.280936 -0.817353 -0.245363
v 1.289215 -0.922418 0.129731
v 1.276212 -0.421647 -0.633265
v 1.272668 -0.100563 -0.924682
v 1.273693 0.341054 -0.769994
v 1.277455 0.653680 -0.514468
v 1.291339 0.787083 -0.016570
v 1.291348 0.730556 0.333548
v -1.500971 0.719300 0.655021
v -1.497715 0.133043 0.949906
v -1.500017 -0.383924 0.744452
v -1.503829 -0.753812 0.399828
v -1.511618 -0.818978 0.115914
v -1.519407 -0.818080 -0.167294
v -1.523798 -0.420465 -0.498629
v -1.527377 -0.100996 -0.821269
v -1.525823 0.330226 -0.681420
v -1.522544 0.664217 -0.385406
v -1.516359 0.820340 0.044385
v -1.509863 0.799711 0.276428
vt 0.418658 0.628558
vt 0.429984 0.594460
vt 0.418658 0.628558
vt 0.429984 0.594460
vt 0.455559 0.579597
vt 0.487711 0.686263
vt 0.518766 0.687575
vt 0.518766 0.687575
vt 0.573569 0.657411
vt 0.575031 0.632493
vt 0.575031 0.632493
vt 0.499585 0.584843
vt 0.543610 0.590088
vt 0.499585 0.584843
vt 0.548725 0.677520
vt 0.573569 0.657411
vt 0.543610 0.590088
vt 0.559686 0.611072
vt 0.548725 0.677520
vt 0.559686 0.611072
vt 0.421216 0.671837
vt 0.487711 0.686263
vt 0.421216 0.671837
vt 0.422276 0.628797
vt 0.426061 0.667933
vt 0.433701 0.598199
vt 0.499131 0.589224
vt 0.541753 0.594828
vt 0.570729 0.633173
vt 0.557610 0.613415
vt 0.569075 0.654899
vt 0.547098 0.673044
vt 0.486972 0.680915
vt 0.518146 0.682681
vt 0.420833 0.628697
vt 0.432254 0.596750
vt 0.455559 0.579597
vt 0.456131 0.582024
vt 0.499300 0.587499
vt 0.558449 0.612475
vt 0.572419 0.632913
vt 0.570827 0.655891
vt 0.547751 0.674799
vt 0.518392 0.684607
vt 0.487234 0.683004
vt 0.424177 0.669472
vt 0.542469 0.592974
vt 0.456509 0.583620
vn 0.0008 -0.2527 0.9676
vn 0.0006 -0.6829 0.7305
vn 0.0027 0.9775 -0.2109
vn 0.0055 0.9785 -0.2064
vn -0.0002 0.9765 -0.2157
vn -0.0008 0.1266 -0.9920
vn 0.0011 -0.9723 -0.2337
vn -0.0054 -0.9700 -0.2431
vn -0.0169 -0.9656 -0.2594
vn -0.0006 0.6330 -0.7741
vn 0.0149 -0.7512 -0.6599
vn 0.0204 -0.7558 -0.6545
vn 0.0353 -0.7680 -0.6394
vn -0.0002 0.9578 -0.2874
vn -0.0007 -0.5598 -0.8286
vn 0.0052 0.9202 0.3914
vn 0.0035 0.9212 0.3892
vn 0.0084 0.9185 0.3954
vn 0.7033 0.3782 0.6020
vn 0.7070 0.3824 0.5949
vn 0.7152 0.3917 0.5788
vn 0.7305 -0.1855 0.6573
vn 0.7349 -0.1953 0.6495
vn 0.7260 -0.1759 0.6648
vn 0.7164 -0.4737 0.5122
vn 0.7129 -0.4691 0.5213
vn 0.7192 -0.4774 0.5048
vn 0.6089 -0.7631 -0.2166
vn 0.6108 -0.7604 -0.2210
vn 0.6076 -0.7649 -0.2138
vn 0.6204 -0.5836 -0.5239
vn 0.6291 -0.5659 -0.5329
vn 0.6055 -0.6094 -0.5120
vn 0.6303 -0.4534 -0.6302
vn 0.6424 -0.4818 -0.5959
vn 0.6518 -0.5057 -0.5651
vn 0.6687 0.1322 -0.7317
vn 0.6890 0.1827 -0.7014
vn 0.6519 0.0943 -0.7524
vn 0.6820 0.4595 -0.5691
vn 0.6816 0.4588 -0.5700
vn 0.6821 0.4598 -0.5686
vn 0.6308 0.7427 -0.2249
vn 0.6320 0.7426 -0.2217
vn 0.6293 0.7428 -0.2284
vn 0.6882 0.7186 -0.1003
vn 0.6478 0.7614 0.0265
vn 0.6087 0.7836 0.1244
vn 0.7261 0.6361 0.2610
vn 0.7286 0.6300 0.2687
vn 0.7239 0.6406 0.2564
vn -0.6831 0.3602 0.6353
vn -0.6776 0.3536 0.6448
vn -0.6929 0.3722 0.6176
vn -0.7243 -0.1934 0.6618
vn -0.7338 -0.2178 0.6435
vn -0.7433 -0.2442 0.6228
vn -0.7176 -0.4723 0.5119
vn -0.7173 -0.4718 0.5128
vn -0.7170 -0.4712 0.5137
vn -0.6437 -0.7648 0.0277
vn -0.6566 -0.7327 0.1790
vn -0.6572 -0.7472 0.0992
vn -0.6541 -0.5417 -0.5279
vn -0.6403 -0.5266 -0.5593
vn -0.6651 -0.5539 -0.5008
vn -0.6504 -0.4563 -0.6072
vn -0.6631 -0.5015 -0.5556
vn -0.6427 -0.4322 -0.6326
vn -0.6895 0.1246 -0.7135
vn -0.7069 0.1757 -0.6851
vn -0.7192 0.2167 -0.6602
vn -0.6924 0.4649 -0.5517
vn -0.6955 0.4732 -0.5407
vn -0.6977 0.4790 -0.5327
vn -0.6119 0.7560 -0.2326
vn -0.6073 0.7551 -0.2472
vn -0.6013 0.7537 -0.2651
vn -0.6332 0.7636 -0.1266
vn -0.5956 0.8032 0.0065
vn -0.6403 0.7517 -0.1581
vn -0.6555 0.7014 0.2800
vn -0.6731 0.7072 0.2165
vn -0.6460 0.6975 0.3102
vn 0.0007 0.5190 0.8548
vn -0.6362 -0.7697 -0.0524
vn -0.5974 -0.7842 -0.1677
vn 0.6640 -0.7220 0.1943
vn 0.6497 -0.7209 0.2415
vn 0.6733 -0.7208 0.1645
vn -0.0100 -0.9756 0.2195
vn -0.0066 -0.9746 0.2240
vn 0.0002 -0.9725 0.2330
vn -0.9998 0.0002 0.0181
vn -0.9996 0.0093 0.0258
vn -0.9998 -0.0040 0.0207
vn 0.9999 -0.0047 -0.0113
vn 0.9999 0.0020 -0.0165
vn 0.9999 -0.0009 -0.0166
vn 0.0084 0.9794 -0.2016
vn 0.0120 -0.9759 -0.2180
vn -0.0005 -0.7379 -0.6749
vn 0.0003 0.9229 0.3851
vn 0.6989 0.3733 0.6101
vn 0.7408 -0.2088 0.6385
vn 0.7091 -0.4641 0.5308
vn 0.6124 -0.7581 -0.2242
vn 0.6493 -0.5284 -0.5470
vn 0.6220 -0.4351 -0.6510
vn 0.7066 0.2325 -0.6683
vn 0.6814 0.4583 -0.5707
vn 0.6359 0.7411 -0.2156
vn 0.7007 0.6970 -0.1521
vn 0.7331 0.6219 0.2755
vn -0.6612 0.3342 0.6717
vn -0.7163 -0.1741 0.6757
vn -0.7178 -0.4726 0.5113
vn -0.6597 -0.7330 0.1658
vn -0.6210 -0.5058 -0.5988
vn -0.6700 -0.5312 -0.5186
vn -0.6782 0.0948 -0.7288
vn -0.6908 0.4608 -0.5572
vn -0.6152 0.7565 -0.2217
vn -0.5662 0.8195 0.0887
vn -0.6847 0.7095 0.1668
vn 0.6280 -0.7208 0.2933
vn -0.0168 -0.9775 0.2105
vn -0.9998 -0.0007 0.0174
vn -0.9997 0.0070 0.0250
vn -0.9997 -0.0014 0.0228
vn -0.9997 -0.0043 0.0236
vn -0.9999 -0.0003 0.0137
vn -0.9999 0.0000 0.0111
vn -0.9996 0.0119 0.0275
vn -0.9998 -0.0031 0.0184
vn 0.9999 0.0013 -0.0165
vn 0.9998 0.0001 -0.0220
vn 0.9997 -0.0062 -0.0219
vn 0.9999 0.0014 -0.0106
vn 0.9999 0.0007 -0.0145
vn 0.9997 0.0017 -0.0254
vn 0.9999 -0.0052 -0.0093
vn 0.9998 -0.0009 -0.0196
vn 0.9999 0.0000 -0.0105
usemtl stonebase.007
s 1
f 1/1/1 3/2/1 4/3/1
f 2/4/2 6/5/2 3/2/2
f 8/6/3 10/7/4 7/8/5
f 12/9/6 14/10/6 11/11/6
f 15/12/7 17/13/8 18/14/9
f 19/15/10 13/16/10 12/9/10
f 16/17/11 22/18/12 17/13/13
f 7/8/14 20/19/14 19/15/14
f 21/20/15 14/10/15 22/18/15
f 23/21/16 9/22/17 8/6/18
f 24/23/19 25/24/20 26/25/21
f 3/2/22 25/24/23 4/3/24
f 6/5/25 27/26/26 3/2/27
f 17/13/28 30/27/29 18/14/30
f 22/18/31 29/28/32 17/13/33
f 22/18/34 32/29/35 31/30/36
f 13/16/37 32/29/38 14/10/39
f 20/19/40 33/31/41 13/16/42
f 10/7/43 34/32/44 20/19/45
f 10/7/46 36/33/47 35/34/48
f 24/23/49 36/33/50 9/22/51
f 23/21/52 38/35/53 1/1/54
f 2/4/55 38/35/56 39/36/57
f 5/37/58 39/36/59 40/38/60
f 15/12/61 40/38/62 41/39/63
f 16/17/64 43/40/65 21/20/66
f 21/20/67 44/41/68 11/11/69
f 12/9/70 44/41/71 45/42/72
f 19/15/73 45/42/74 46/43/75
f 7/8/76 46/43/77 47/44/78
f 7/8/79 48/45/80 8/6/81
f 8/6/82 37/46/83 23/21/84
f 1/1/85 24/23/85 23/21/85
f 15/12/61 42/47/86 16/17/87
f 18/14/88 28/48/89 6/5/90
f 5/37/91 18/14/92 6/5/93
f 43/40/94 41/39/95 40/38/96
f 36/33/97 27/26/98 31/30/99
f 1/1/1 2/4/1 3/2/1
f 2/4/2 5/37/2 6/5/2
f 8/6/3 9/22/100 10/7/4
f 12/9/6 13/16/6 14/10/6
f 15/12/7 16/17/101 17/13/8
f 19/15/10 20/19/10 13/16/10
f 16/17/11 21/20/102 22/18/12
f 7/8/14 10/7/14 20/19/14
f 21/20/15 11/11/15 14/10/15
f 23/21/16 24/23/103 9/22/17
f 24/23/19 4/3/104 25/24/20
f 3/2/22 27/26/105 25/24/23
f 6/5/25 28/48/106 27/26/26
f 17/13/28 29/28/107 30/27/29
f 22/18/31 31/30/108 29/28/32
f 22/18/34 14/10/109 32/29/35
f 13/16/37 33/31/110 32/29/38
f 20/19/40 34/32/111 33/31/41
f 10/7/43 35/34/112 34/32/44
f 10/7/46 9/22/113 36/33/47
f 24/23/49 26/25/114 36/33/50
f 23/21/52 37/46/115 38/35/53
f 2/4/55 1/1/116 38/35/56
f 5/37/58 2/4/117 39/36/59
f 15/12/61 5/37/118 40/38/62
f 16/17/64 42/47/119 43/40/65
f 21/20/67 43/40/120 44/41/68
f 12/9/70 11/11/121 44/41/71
f 19/15/73 12/9/122 45/42/74
f 7/8/76 19/15/123 46/43/77
f 7/8/79 47/44/124 48/45/80
f 8/6/82 48/45/125 37/46/83
f 1/1/85 4/3/85 24/23/85
f 15/12/61 41/39/63 42/47/86
f 18/14/88 30/27/126 28/48/89
f 5/37/91 15/12/127 18/14/92
f 38/35/128 37/46/129 48/45/130
f 48/45/130 47/44/131 43/40/94
f 47/44/131 46/43/132 43/40/94
f 46/43/132 45/42/133 43/40/94
f 45/42/133 44/41/133 43/40/94
f 43/40/94 42/47/134 41/39/95
f 38/35/128 48/45/130 39/36/135
f 40/38/96 39/36/135 43/40/94
f 43/40/94 39/36/135 48/45/130
f 27/26/98 28/48/136 31/30/99
f 28/48/136 30/27/137 29/28/138
f 31/30/99 28/48/136 29/28/138
f 31/30/99 32/29/139 33/31/140
f 33/31/140 34/32/141 31/30/99
f 34/32/141 35/34/142 31/30/99
f 35/34/142 36/33/97 31/30/99
f 36/33/97 26/25/143 27/26/98
f 26/25/143 25/24/144 27/26/98
