# Blender v3.1.2 OBJ File: 'laser.blend'
# www.blender.org
mtllib laser.mtl
o 立方体
v -1.414214 0.000000 7.963814
v 0.000000 1.414214 7.963814
v -1.414214 0.000000 207.963806
v 0.000000 1.414214 207.963806
v 0.000000 -1.414214 7.963814
v 1.414214 0.000000 7.963814
v 0.000000 -1.414214 207.963806
v 1.414214 0.000000 207.963806
v -1.414214 0.000000 107.963814
v -0.327561 0.327561 7.963814
v 0.000000 1.414214 107.963814
v -0.327561 0.327561 207.963806
v -0.327561 -0.327561 207.963806
v 0.327561 0.327561 207.963806
v 0.327561 -0.327561 207.963806
v 0.000000 -1.414214 107.963814
v 1.414214 0.000000 107.963814
v 0.327561 -0.327561 7.963814
v -0.327561 -0.327561 7.963814
v 0.327561 0.327561 7.963814
v 0.327561 0.327561 107.963814
v -0.327561 -0.327561 107.963814
v 0.000000 0.000000 7.963814
v 0.327561 -0.327561 107.963814
v 0.000000 0.000000 207.963806
v -0.327561 0.327561 107.963814
vt 0.625000 0.125000
vt 0.500000 0.125000
vt 0.500000 0.250000
vt 0.625000 0.375000
vt 0.500000 0.375000
vt 0.500000 0.500000
vt 0.625000 0.625000
vt 0.500000 0.625000
vt 0.500000 0.750000
vt 0.625000 0.875000
vt 0.500000 0.875000
vt 0.500000 1.000000
vt 0.375000 0.625000
vt 0.250000 0.625000
vt 0.250000 0.750000
vt 0.875000 0.625000
vt 0.750000 0.625000
vt 0.750000 0.750000
vt 0.625000 0.750000
vt 0.750000 0.500000
vt 0.625000 0.500000
vt 0.875000 0.500000
vt 0.125000 0.625000
vt 0.125000 0.750000
vt 0.250000 0.500000
vt 0.125000 0.500000
vt 0.375000 0.500000
vt 0.375000 0.875000
vt 0.375000 1.000000
vt 0.375000 0.750000
vt 0.375000 0.375000
vt 0.375000 0.250000
vt 0.375000 0.125000
vt 0.500000 0.000000
vt 0.375000 0.000000
vt 0.625000 0.000000
vt 0.625000 0.250000
vt 0.625000 1.000000
vt 0.875000 0.750000
vn -0.9574 0.2886 0.0000
vn 0.0000 0.0000 1.0000
vn 0.2886 -0.9574 0.0000
vn 0.0000 0.0000 -1.0000
vn -0.9574 -0.2886 0.0000
vn 0.9574 0.2886 0.0000
vn 0.2886 0.9574 0.0000
vn -0.2886 -0.9574 0.0000
vn 0.9574 -0.2886 0.0000
vn -0.2886 0.9574 0.0000
usemtl マテリアル.005
s off
f 11/1/1 26/2/1 12/3/1
f 14/4/2 25/5/2 15/6/2
f 17/7/3 24/8/3 18/9/3
f 20/10/4 23/11/4 10/12/4
f 16/13/5 22/14/5 19/15/5
f 11/16/6 21/17/6 20/18/6
f 21/17/7 17/7/7 6/19/7
f 14/20/7 8/21/7 17/7/7
f 4/22/6 14/20/6 21/17/6
f 22/14/8 9/23/8 1/24/8
f 13/25/8 3/26/8 9/23/8
f 7/27/5 13/25/5 22/14/5
f 19/28/4 1/29/4 10/12/4
f 18/9/4 5/30/4 19/28/4
f 18/9/4 23/11/4 20/10/4
f 24/8/9 16/13/9 5/30/9
f 15/6/9 7/27/9 16/13/9
f 8/21/3 15/6/3 24/8/3
f 13/31/2 7/27/2 15/6/2
f 12/3/2 3/32/2 13/31/2
f 12/3/2 25/5/2 14/4/2
f 26/2/10 9/33/10 3/32/10
f 10/34/10 1/35/10 9/33/10
f 2/36/1 10/34/1 26/2/1
f 11/1/1 12/3/1 4/37/1
f 14/4/2 15/6/2 8/21/2
f 17/7/3 18/9/3 6/19/3
f 20/10/4 10/12/4 2/38/4
f 16/13/5 19/15/5 5/30/5
f 11/16/6 20/18/6 2/39/6
f 21/17/7 6/19/7 20/18/7
f 14/20/7 17/7/7 21/17/7
f 4/22/6 21/17/6 11/16/6
f 22/14/8 1/24/8 19/15/8
f 13/25/8 9/23/8 22/14/8
f 7/27/5 22/14/5 16/13/5
f 19/28/4 10/12/4 23/11/4
f 18/9/4 19/28/4 23/11/4
f 18/9/4 20/10/4 6/19/4
f 24/8/9 5/30/9 18/9/9
f 15/6/9 16/13/9 24/8/9
f 8/21/3 24/8/3 17/7/3
f 13/31/2 15/6/2 25/5/2
f 12/3/2 13/31/2 25/5/2
f 12/3/2 14/4/2 4/37/2
f 26/2/10 3/32/10 12/3/10
f 10/34/10 9/33/10 26/2/10
f 2/36/1 26/2/1 11/1/1
