# Blender v3.1.2 OBJ File: ''
# www.blender.org
mtllib PlayerBullet01.mtl
o 平面
v 0.622979 -0.250000 -0.000000
v 0.620553 -0.286053 -0.000000
v -0.620553 0.286053 0.000000
v 0.620553 0.286053 0.000000
v -0.682977 0.000000 0.000000
v 0.000000 -0.678646 -0.000000
v 0.682977 0.000000 0.000000
v 0.000000 0.678646 0.000000
v 0.000000 0.000000 0.000000
v -0.628688 -0.270630 -0.000000
v 0.404576 -0.557133 -0.000000
v -0.404576 0.557133 0.000000
v -0.404576 -0.557133 -0.000000
v 0.404576 0.557133 0.000000
v 0.000000 0.664081 0.000000
v 0.000000 -0.664081 -0.000000
v -0.622979 -0.250000 -0.000000
v -0.622979 0.250000 0.000000
v 0.622979 0.250000 0.000000
vt 0.375000 0.750000
vt 0.500000 0.750000
vt 0.500000 1.000000
vt 0.500000 0.500000
vt 0.250000 0.500000
vt 0.250000 0.375000
vt 1.000000 0.250000
vt 0.750000 0.375000
vt 0.750000 0.250000
vt 0.500000 0.000000
vt 0.625000 0.250000
vt 0.500000 0.250000
vt 0.000000 0.250000
vt 0.000000 0.500000
vt 0.250000 0.000000
vt 0.250000 0.625000
vt 0.000000 0.750000
vt 0.750000 1.000000
vt 1.000000 0.750000
vt 0.750000 0.625000
vt 1.000000 0.500000
vt 0.625000 0.750000
vt 0.750000 0.500000
vt 0.375000 0.250000
vt 0.250000 0.250000
vt 0.250000 0.750000
vt 0.750000 0.750000
vn 0.0000 -0.0000 1.0000
usemtl マテリアル
s off
f 12/1/1 15/2/1 8/3/1
f 9/4/1 5/5/1 17/6/1
f 2/7/1 1/8/1 11/9/1
f 6/10/1 11/11/1 16/12/1
f 10/13/1 17/6/1 5/14/1
f 13/15/1 6/10/1 16/12/1
f 18/16/1 3/17/1 5/5/1
f 15/2/1 14/18/1 8/3/1
f 4/19/1 19/20/1 7/21/1
f 14/22/1 9/4/1 19/20/1
f 9/4/1 12/1/1 18/16/1
f 1/8/1 7/23/1 9/4/1
f 17/6/1 13/24/1 9/4/1
f 13/24/1 16/12/1 9/4/1
f 2/7/1 7/23/1 1/8/1
f 10/13/1 13/25/1 17/6/1
f 18/16/1 12/26/1 3/17/1
f 4/19/1 14/27/1 19/20/1
f 15/2/1 9/4/1 14/22/1
f 9/4/1 7/23/1 19/20/1
f 18/16/1 5/5/1 9/4/1
f 9/4/1 15/2/1 12/1/1
f 9/4/1 16/12/1 11/11/1
f 11/11/1 1/8/1 9/4/1
