# Blender v3.1.2 OBJ File: 'bullet.blend'
# www.blender.org
mtllib PlayerBullet01.mtl
o 立方体
v 0.592493 0.174041 -0.662019
v 1.003349 0.584897 -0.662019
v 0.181637 0.584897 -0.662019
v 0.592493 0.995753 -0.662019
v 0.592493 0.329680 -0.812706
v 0.847710 0.584897 -0.812706
v 0.337276 0.584897 -0.812706
v 0.592493 0.840114 -0.812706
v 0.201296 0.205094 1.009317
v 0.592493 0.584897 -1.011834
vt 0.125000 0.500000
vt 0.125000 0.750000
vt 0.125000 0.500000
vt 0.375000 0.250000
vt 0.625000 0.500000
vt 0.375000 0.500000
vt 0.625000 0.750000
vt 0.375000 0.750000
vt 0.625000 0.750000
vt 0.375000 1.000000
vt 0.875000 0.500000
vt 0.375000 0.750000
vt 0.625000 0.250000
vt 0.625000 0.250000
vt 0.625000 1.000000
vt 0.375000 1.000000
vt 0.875000 0.750000
vt 0.875000 0.750000
vt 0.625000 0.500000
vt 0.375000 0.500000
vn -0.6990 -0.6990 -0.1506
vn -0.5710 0.5710 -0.5898
vn 0.5239 -0.5239 -0.6715
vn 0.5710 -0.5710 -0.5898
vn -0.5710 -0.5710 -0.5898
vn 0.5710 0.5710 -0.5898
vn -0.5239 -0.5239 -0.6715
vn -0.6972 0.6972 0.1666
vn 0.6961 -0.6961 0.1759
vn 0.6325 0.6325 0.4472
vn 0.5239 0.5239 -0.6715
vn -0.5239 0.5239 -0.6715
usemtl マテリアル
s off
f 3/1/1 1/2/1 9/3/1
f 3/4/2 8/5/2 7/6/2
f 6/7/3 5/8/3 10/9/3
f 6/7/4 1/10/4 5/8/4
f 7/6/5 1/2/5 3/1/5
f 4/11/6 6/7/6 8/5/6
f 5/8/7 7/6/7 10/12/7
f 4/13/8 3/4/8 9/14/8
f 1/10/9 2/15/9 9/16/9
f 2/17/10 4/11/10 9/18/10
f 8/5/11 6/7/11 10/19/11
f 7/6/12 8/5/12 10/20/12
f 3/4/2 4/13/2 8/5/2
f 6/7/4 2/15/4 1/10/4
f 7/6/5 5/8/5 1/2/5
f 4/11/6 2/17/6 6/7/6
o 立方体.001
v -0.588695 0.170243 -0.662019
v -0.177839 0.581099 -0.662019
v -0.999551 0.581099 -0.662019
v -0.588695 0.991955 -0.662019
v -0.588695 0.325882 -0.812706
v -0.333478 0.581099 -0.812706
v -0.843912 0.581099 -0.812706
v -0.588695 0.836316 -0.812706
v -0.201296 0.205094 1.009317
v -0.588695 0.581099 -1.011834
vt 0.125000 0.500000
vt 0.125000 0.750000
vt 0.125000 0.500000
vt 0.375000 0.250000
vt 0.625000 0.500000
vt 0.375000 0.500000
vt 0.625000 0.750000
vt 0.375000 0.750000
vt 0.625000 0.750000
vt 0.375000 1.000000
vt 0.875000 0.500000
vt 0.375000 0.750000
vt 0.625000 0.250000
vt 0.625000 0.250000
vt 0.625000 1.000000
vt 0.375000 1.000000
vt 0.875000 0.750000
vt 0.875000 0.750000
vt 0.625000 0.500000
vt 0.375000 0.500000
vn -0.6961 -0.6961 0.1759
vn -0.5710 0.5710 -0.5898
vn 0.5239 -0.5239 -0.6715
vn 0.5710 -0.5710 -0.5898
vn -0.5710 -0.5710 -0.5898
vn 0.5710 0.5710 -0.5898
vn -0.5239 -0.5239 -0.6715
vn -0.6333 0.6333 0.4449
vn 0.6994 -0.6994 -0.1475
vn 0.6972 0.6972 0.1666
vn 0.5239 0.5239 -0.6715
vn -0.5239 0.5239 -0.6715
usemtl マテリアル.001
s off
f 13/21/13 11/22/13 19/23/13
f 13/24/14 18/25/14 17/26/14
f 16/27/15 15/28/15 20/29/15
f 16/27/16 11/30/16 15/28/16
f 17/26/17 11/22/17 13/21/17
f 14/31/18 16/27/18 18/25/18
f 15/28/19 17/26/19 20/32/19
f 14/33/20 13/24/20 19/34/20
f 11/30/21 12/35/21 19/36/21
f 12/37/22 14/31/22 19/38/22
f 18/25/23 16/27/23 20/39/23
f 17/26/24 18/25/24 20/40/24
f 13/24/14 14/33/14 18/25/14
f 16/27/16 12/35/16 11/30/16
f 17/26/17 15/28/17 11/22/17
f 14/31/18 12/37/18 16/27/18
o 立方体.002
v -0.588695 -0.999551 -0.662019
v -0.177839 -0.588695 -0.662019
v -0.999551 -0.588695 -0.662019
v -0.588695 -0.177839 -0.662019
v -0.588695 -0.843912 -0.812706
v -0.333478 -0.588695 -0.812706
v -0.843912 -0.588695 -0.812706
v -0.588695 -0.333478 -0.812706
v -0.197498 -0.193700 1.009317
v -0.588695 -0.588695 -1.011834
vt 0.125000 0.500000
vt 0.125000 0.750000
vt 0.125000 0.500000
vt 0.375000 0.250000
vt 0.625000 0.500000
vt 0.375000 0.500000
vt 0.625000 0.750000
vt 0.375000 0.750000
vt 0.625000 0.750000
vt 0.375000 1.000000
vt 0.875000 0.500000
vt 0.375000 0.750000
vt 0.625000 0.250000
vt 0.625000 0.250000
vt 0.625000 1.000000
vt 0.375000 1.000000
vt 0.875000 0.750000
vt 0.875000 0.750000
vt 0.625000 0.500000
vt 0.375000 0.500000
vn -0.6308 -0.6308 0.4518
vn -0.5710 0.5710 -0.5898
vn 0.5239 -0.5239 -0.6715
vn 0.5710 -0.5710 -0.5898
vn -0.5710 -0.5710 -0.5898
vn 0.5710 0.5710 -0.5898
vn -0.5239 -0.5239 -0.6715
vn -0.6968 0.6968 0.1697
vn 0.6965 -0.6965 0.1728
vn 0.6984 0.6984 -0.1568
vn 0.5239 0.5239 -0.6715
vn -0.5239 0.5239 -0.6715
usemtl マテリアル.002
s off
f 23/41/25 21/42/25 29/43/25
f 23/44/26 28/45/26 27/46/26
f 26/47/27 25/48/27 30/49/27
f 26/47/28 21/50/28 25/48/28
f 27/46/29 21/42/29 23/41/29
f 24/51/30 26/47/30 28/45/30
f 25/48/31 27/46/31 30/52/31
f 24/53/32 23/44/32 29/54/32
f 21/50/33 22/55/33 29/56/33
f 22/57/34 24/51/34 29/58/34
f 28/45/35 26/47/35 30/59/35
f 27/46/36 28/45/36 30/60/36
f 23/44/26 24/53/26 28/45/26
f 26/47/28 22/55/28 21/50/28
f 27/46/29 25/48/29 21/42/29
f 24/51/30 22/57/30 26/47/30
o 立方体.003
v 0.592493 -0.995753 -0.662019
v 1.003349 -0.584897 -0.662019
v 0.181637 -0.584897 -0.662019
v 0.592493 -0.174041 -0.662019
v 0.592493 -0.840114 -0.812706
v 0.847710 -0.584897 -0.812706
v 0.337276 -0.584897 -0.812706
v 0.592493 -0.329680 -0.812706
v 0.201296 -0.201296 1.009317
v 0.592493 -0.584897 -1.011834
vt 0.125000 0.500000
vt 0.125000 0.750000
vt 0.125000 0.500000
vt 0.375000 0.250000
vt 0.625000 0.500000
vt 0.375000 0.500000
vt 0.625000 0.750000
vt 0.375000 0.750000
vt 0.625000 0.750000
vt 0.375000 1.000000
vt 0.875000 0.500000
vt 0.375000 0.750000
vt 0.625000 0.250000
vt 0.625000 0.250000
vt 0.625000 1.000000
vt 0.375000 1.000000
vt 0.875000 0.750000
vt 0.875000 0.750000
vt 0.625000 0.500000
vt 0.375000 0.500000
vn -0.6970 -0.6970 0.1682
vn -0.5710 0.5710 -0.5898
vn 0.5239 -0.5239 -0.6715
vn 0.5710 -0.5710 -0.5898
vn -0.5710 -0.5710 -0.5898
vn 0.5710 0.5710 -0.5898
vn -0.5239 -0.5239 -0.6715
vn -0.6989 0.6989 -0.1522
vn 0.6320 -0.6320 0.4484
vn 0.6963 0.6963 0.1743
vn 0.5239 0.5239 -0.6715
vn -0.5239 0.5239 -0.6715
usemtl マテリアル.003
s off
f 33/61/37 31/62/37 39/63/37
f 33/64/38 38/65/38 37/66/38
f 36/67/39 35/68/39 40/69/39
f 36/67/40 31/70/40 35/68/40
f 37/66/41 31/62/41 33/61/41
f 34/71/42 36/67/42 38/65/42
f 35/68/43 37/66/43 40/72/43
f 34/73/44 33/64/44 39/74/44
f 31/70/45 32/75/45 39/76/45
f 32/77/46 34/71/46 39/78/46
f 38/65/47 36/67/47 40/79/47
f 37/66/48 38/65/48 40/80/48
f 33/64/38 34/73/38 38/65/38
f 36/67/40 32/75/40 31/70/40
f 37/66/41 35/68/41 31/62/41
f 34/71/42 32/77/42 36/67/42
